<svg enable-background="new 0 0 72 72" viewBox="0 0 72 72" xmlns="http://www.w3.org/2000/svg"><path d="m47.6 55.5c9.1 0 16.5-7.4 16.5-16.5s-7.4-16.5-16.5-16.5" style="fill:none;stroke:#1d1d1b;stroke-width:2;stroke-linecap:round;stroke-linejoin:round;stroke-miterlimit:10"/><path d="m45.7 55.3c12 0 18.4-7.2 18.4-16.2s-6.3-19.3-31.2-16.6" fill="#fbea2e"/><path d="m46.8 55.5h-12" fill="#fbea2e"/><path d="m34.5 48.5c-1.9.1-3.4 1.7-3.4 3.6.1 1.9 1.7 3.4 3.6 3.4" fill="#fbea2e"/><path d="m34.2 41.5c-1.9.1-3.4 1.7-3.4 3.6.1 1.9 1.7 3.4 3.6 3.4" fill="#fbea2e"/><path d="m34.1 41.5c-1.9.2-3.4 1.8-3.2 3.8.2 1.9 1.8 3.4 3.8 3.2" fill="#fbea2e"/><path d="m33.8 34.5c-1.9.1-3.4 1.8-3.3 3.7s1.8 3.4 3.7 3.3" fill="#fbea2e"/><path d="m43.1 23c-7.6-5.9-10.7-6.7-12-5.4-1.3 1.4.8 5.7 2.2 7" fill="#fbea2e"/><path d="m11.4 27.5c-1.9 0-3.5 1.6-3.5 3.5s1.6 3.5 3.5 3.5" fill="#fbea2e"/><path d="m33.7 34.5h-22.3" fill="#fbea2e"/><path d="m11.4 27.5h27.8" fill="#fbea2e"/><path d="m33.3 24.5-2.2-2" fill="#fbea2e"/><path d="m38.3 19.3c2.1 2 5.2 3.4 9.5 3.3" fill="#fbea2e"/><path d="m36 17.5 2.4 1.8" fill="#fbea2e"/><path d="m38.8 34.6-2-7.1h-25.8v7z" fill="#fbea2e"/><path d="m29.4 38.9h20.9v12.2h-20.9z" fill="#fbea2e" transform="matrix(0 1 -1 0 84.8684 5.2085)"/><path d="m36.9 27.5-1-2.7-3.1.5 2.9 2.2z" fill="#fbea2e"/><g style="fill:none;stroke:#1d1d1b;stroke-width:2;stroke-linecap:round;stroke-linejoin:round;stroke-miterlimit:10"><path d="m46.8 55.5h-12"/><path d="m34.5 48.5c-1.9.1-3.4 1.7-3.4 3.6.1 1.9 1.7 3.4 3.6 3.4"/><path d="m34.2 41.5c-1.9.1-3.4 1.7-3.4 3.6.1 1.9 1.7 3.4 3.6 3.4"/><path d="m34.1 41.5c-1.9.2-3.4 1.8-3.2 3.8.2 1.9 1.8 3.4 3.8 3.2"/><path d="m33.8 34.5c-1.9.1-3.4 1.8-3.3 3.7s1.8 3.4 3.7 3.3"/><path d="m36 17.5c-1.4-1.3-3.6-1.3-4.9.1s-1.3 3.6.1 4.9"/><path d="m11.4 27.5c-1.9 0-3.5 1.6-3.5 3.5s1.6 3.5 3.5 3.5"/><path d="m33.7 34.5h-22.3"/><path d="m11.4 27.5h27.8"/><path d="m33.3 24.5-2.2-2"/><path d="m38.3 19.3c2.1 2 5.2 3.4 9.5 3.3"/><path d="m36 17.5 2.4 1.8"/><path d="m47.6 55.5c9.1 0 16.5-7.4 16.5-16.5s-7.4-16.5-16.5-16.5"/><path d="m46.8 55.5h-12"/><path d="m34.5 48.5c-1.9.1-3.4 1.7-3.4 3.6.1 1.9 1.7 3.4 3.6 3.4"/><path d="m34.2 41.5c-1.9.1-3.4 1.7-3.4 3.6.1 1.9 1.7 3.4 3.6 3.4"/><path d="m34.1 41.5c-1.9.2-3.4 1.8-3.2 3.8.2 1.9 1.8 3.4 3.8 3.2"/><path d="m33.8 34.5c-1.9.1-3.4 1.8-3.3 3.7s1.8 3.4 3.7 3.3"/><path d="m36 17.5c-1.4-1.3-3.6-1.3-4.9.1s-1.3 3.6.1 4.9"/><path d="m11.4 27.5c-1.9 0-3.5 1.6-3.5 3.5s1.6 3.5 3.5 3.5"/><path d="m33.7 34.5h-22.3"/><path d="m11.4 27.5h27.8"/><path d="m33.3 24.5-2.2-2"/><path d="m38.3 19.3c2.1 2 5.2 3.4 9.5 3.3"/><path d="m36 17.5 2.4 1.8"/></g></svg>