<svg enable-background="new 0 0 72 72" viewBox="0 0 72 72" xmlns="http://www.w3.org/2000/svg" xmlns:xlink="http://www.w3.org/1999/xlink"><defs><path id="a" d="m35.9 11.1-8.6 1.6-5.3 3.1-4.9 5-3.5 7.4v12.3l5.6 9.4 8.1 5.5 8.6 1.7 7.2-1.2 7.7-4.3 5.1-6.2 3-9.2-.8-8-3.8-7.9-4.2-4.3-7.2-3.9z"/><clipPath id="b"><use xlink:href="#a"/></clipPath></defs><use fill="#fcea2b" xlink:href="#a"/><path clip-path="url(#b)" d="m8.6 6.1h55.2v56h-55.2z" fill="#fcea2b"/><circle cx="35.9" cy="34.1" fill="none" r="23" stroke="#fcea2b" stroke-miterlimit="10" stroke-width="1.8"/><path d="m51.4 51c4.6-4.2 7.5-10.3 7.5-17 0-12.7-10.3-23-23-23s-23 10.3-23 23c0 7.3 3.4 13.8 8.8 18.1" style="fill:none;stroke:#000;stroke-width:2;stroke-linecap:round;stroke-linejoin:round;stroke-miterlimit:10"/><circle cx="44.3" cy="25.8" r="2.6"/><circle cx="27" cy="25.8" r="2.6"/><path d="m41.9 38.3c-4.1 2.2-8.7 2.3-12.1 0" style="fill:none;stroke:#000;stroke-width:2;stroke-linecap:round;stroke-linejoin:round;stroke-miterlimit:10"/><path d="m21.2 21.9c.7-1.3 1.8-2.4 3.3-2.9 1.3-.7 2.9-.8 4.3-.4" style="fill:none;stroke:#000;stroke-width:2;stroke-linecap:round;stroke-linejoin:round;stroke-miterlimit:10"/><path d="m50.6 21.9c-1.5-2.7-4.6-4-7.6-3.3" style="fill:none;stroke:#000;stroke-width:2;stroke-linecap:round;stroke-linejoin:round;stroke-miterlimit:10"/><path d="m38.3 36.4c0-1.3-1.1-2.4-2.4-2.3-1.3 0-2.4 1.1-2.3 2.4" fill="#fcea2b"/><path d="m34 52 3.9-1.1-.1-14.2-3.8.1z" fill="#fcea2b"/><path d="m29.3 45.7c-2.1 1.8-2.7 4.1-3.2 6.1-.7 2.8-.6 5.1 1.4 7.3 1.4 1.6 4 2.4 5.8 2.8 1.8.5 2.6-.3 6.4-3 1.2-.9 3.8-.9 5.7-2.1.3-.2 2 .4 2.1 0 .1-.2.3-1.7 0-2.1-.1-.2-1.5-.7-1.4-.7" fill="#fcea2b"/><path d="m31.8 46h3.5l4.3.7 3.2 1.3.4 3v1.4l-6.4-2.8-4.3-1.5-1.4-.7h-.8z" fill="#fcea2b"/><path d="m46.8 56.5h2" fill="#fbea2e"/><path d="m44.6 57.4c-1.6 0-3.4.4-5.2 2" fill="#fbea2e"/><path d="m46.2 57.3-1.7.1" fill="#fbea2e"/><g style="fill:none;stroke-miterlimit:10;stroke:#000;stroke-width:2;stroke-linecap:round;stroke-linejoin:round"><path d="m39.5 59.3c-3.8 3.3-10.4 3.4-12.8-1 0 0-1.8-2.5-.2-7.2 0 0 .7-2.8 1-3.7.3-.7.7-1.3 2.9-1.4 2.5-.2 4.2-1.1 9.8.5 1.5.4 4.1 1.5 3.3 5 0 0-.2 2.3-2.4 1.6"/><path d="m46.2 57.3c1.1.1 2-.7 2-1.8.1-1.1-.7-2-1.8-2"/><path d="m41.1 53.4h5.3"/><path d="m44.6 57.4c-1.6 0-3.4.4-5.2 2"/><path d="m46.2 57.3-1.7.1"/><path d="m37.9 54.4c.6.6 1.6.7 2.3.2.8-.5 1-1.4.8-2.3-.3-1.1-.6-2.7-2.7-3.4"/><path d="m34.6 49.6c2.1 0 2.9 4.5 2.9 4.5.5 1.8-.2 3.5-1.4 3.8s-2.6-.9-3.1-2.7c0 0-.6-2.1-1.3-2.8"/><path d="m37.7 36.9c0-1.1-.9-1.9-1.9-1.9s-1.9.9-1.9 1.9"/><path d="m33.8 45.6v-8.7"/><path d="m37.7 36.9v8.8"/></g></svg>