<svg enable-background="new 0 0 72 72" viewBox="0 0 72 72" xmlns="http://www.w3.org/2000/svg"><path d="m33.4 29.6v-.9c.1.3.1.6 0 .9z" fill="#fcea2f"/><path d="m53.9 50.9c0 10-8.2 16.9-17.9 16.9-8.7.1-16.1-6.2-17.2-14.9-.4-2.9-1.1-7.9-1.1-14.9l-2-18.4c-1.6-7.8 5.2-8.1 6.8-2l1.1 9 .2.3s1.3 7 2.2 7.2c.4.1.1-3.2.4-.6v-3.9c-.2-1.9 1.1-3.7 3-4s3.7 1.1 4 3v.9c0-.3 0-.6 0-.9-.2-1.9 1.2-3.7 3.1-4 1.4-.2 3.1 2.8 4.1 3.9 1.2-1.2 1.7-5.2 1.7-5.2l.5-14.9c0-5.9 9.3-5.5 9.3-.1l1.1 31.3v.5z" fill="#fcea2f"/><path d="m33.4 29.6v-.9c.1.3.1.6 0 .9z" fill="#fcea2f"/><g fill="none" stroke-linecap="round" stroke-width="2"><path d="m18.8 53c1.1 8.6 8.5 15 17.2 14.9 9.7 0 17.9-6.8 17.9-16.9l-.7-11.1c-.2-2.2-2-4-4.2-4h-10c-2.1-.1-3.8 1.4-4 3.5.2 2.1 1.9 3.8 4 3.9l1 .1c2.2.2 4 1.3 4 2.4v2 .4c-2.2.5-4.1 1.5-5.8 3" stroke="#000" stroke-miterlimit="10"/><path d="m18.8 53c-.4-2.9-1.1-7.9-1.1-14.9" stroke="#1d1e1c" stroke-miterlimit="10"/><path d="m17.7 38.1-1.9-18.5" stroke="#1d1e1c" stroke-miterlimit="10"/><path d="m22 17.9.9 8.7" stroke="#1d1e1c" stroke-miterlimit="10"/><path d="m43.5 8.2-.5 15" stroke="#1d1e1c" stroke-miterlimit="10"/><path d="m51.9 8.5.5 24.8" stroke="#1d1e1c" stroke-miterlimit="10"/><path d="m15.8 19.6c-.8-7.8 5.5-7.6 6.2-1.7" stroke="#1d1e1c" stroke-miterlimit="10"/><path d="m43.5 8.2c0-5.9 8.4-5.2 8.4.2" stroke="#1d1e1c" stroke-miterlimit="10"/><path d="m31.3 40.6c-3.3 1.2-5-1.9-4.9-4v-7c-.3-1.9 1.1-3.7 3-4s3.7 1.1 4 3v.9" stroke="#010101" stroke-linejoin="round"/><path d="m33.5 34v-5.3c-.3-1.9 1.1-3.7 3-4s3.7 1.1 4 3v.9 3.5" stroke="#010101" stroke-linejoin="round"/></g></svg>