<svg enable-background="new 0 0 72 72" viewBox="0 0 72 72" xmlns="http://www.w3.org/2000/svg"><g stroke="#000" stroke-linecap="round" stroke-linejoin="round" stroke-miterlimit="10" stroke-width="2"><path d="m66 34-4 15h-52l-4-15" fill="#d0cfce"/><path d="m66 34c0-10.5-19.5-8-30-8s-30-2.5-30 8" fill="#d0cfce"/><path d="m14 31c0-10.5 15.7-6 22-6s22-4.5 22 6" fill="#d0cfce"/><path d="m25 33.6c0-18.4 8.5-9.2 11-9.2s12-9.2 12 9.2" fill="#d0cfce"/><g fill="none"><path d="m15 49h-2v-6c0-.6.4-1 1-1"/><path d="m21 49h-2v-6c0-.6.4-1 1-1"/><path d="m27 49h-2v-6c0-.6.4-1 1-1"/><path d="m58 42c-.6 0-1 .4-1 1v6h2"/><path d="m52 42c-.6 0-1 .4-1 1v6h2"/><path d="m46 42c-.6 0-1 .4-1 1v6h2"/></g><path d="m41 49c0-10.5-2.9-12-5-12s-5 1.5-5 12z" fill="#92d3f5"/></g></svg>