<?xml version="1.0" standalone="no"?>
<!DOCTYPE svg PUBLIC "-//W3C//DTD SVG 1.1//EN" "http://www.w3.org/Graphics/SVG/1.1/DTD/svg11.dtd">
<svg width="100%" height="100%" viewBox="0 0 72 72" version="1.1" xmlns="http://www.w3.org/2000/svg" xmlns:xlink="http://www.w3.org/1999/xlink" xml:space="preserve" style="fill-rule:evenodd;clip-rule:evenodd;stroke-linejoin:round;stroke-miterlimit:1.41421;">
    <g transform="matrix(2.125,0,0,2.125,-36.7812,-253)">
        <g id="Layer1">
            <path d="M35.5,125C41.571,125 46.5,129.929 46.5,136C46.5,142.071 41.571,147 35.5,147C29.429,147 24.5,142.071 24.5,136C24.5,129.929 29.429,125 35.5,125ZM35.5,139C39.096,139 41.886,137.594 43,137C43.317,139.26 41.993,144 35.5,144C29.007,144 27.687,139.505 28,137C30.692,138.38 31.904,139 35.5,139ZM31.75,129C32.44,129 33,130.568 33,132.5C33,134.432 32.44,136 31.75,136C31.06,136 30.5,134.432 30.5,132.5C30.5,130.568 31.06,129 31.75,129ZM38.75,129C39.44,129 40,130.568 40,132.5C40,134.432 39.44,136 38.75,136C38.06,136 37.5,134.432 37.5,132.5C37.5,130.568 38.06,129 38.75,129ZM21,127L21,123.412C21,121.529 22.529,120 24.412,120L46.588,120C48.471,120 50,121.529 50,123.412L50,148.588C50,150.471 48.471,152 46.588,152L24.412,152C22.529,152 21,150.471 21,148.588L21,145L19.25,145C18.836,145 18.5,144.664 18.5,144.25L18.5,142.75C18.5,142.336 18.836,142 19.25,142L21,142L21,140L19.25,140C18.836,140 18.5,139.664 18.5,139.25L18.5,137.75C18.5,137.336 18.836,137 19.25,137L21,137L21,135L19.25,135C18.836,135 18.5,134.664 18.5,134.25L18.5,132.75C18.5,132.336 18.836,132 19.25,132L21,132L21,130L19.25,130C18.836,130 18.5,129.664 18.5,129.25L18.5,127.75C18.5,127.336 18.836,127 19.25,127L21,127Z" style="fill:black;"/>
        </g>
    </g>
</svg>
